<svg width="19" height="24" viewBox="0 0 19 24" xmlns="http://www.w3.org/2000/svg">
    <path d="M9.07.399a.74.74 0 0 1 .437 0l8.183 2.574c.304.095.51.376.51.694 0 1.272.025 2.415.05 3.52.085 3.915.148 6.743-1.129 9.328-2.074 4.206-5.628 6.137-7.56 6.914a.73.73 0 0 1-.272.053l-.092-.006a.761.761 0 0 1-.18-.046c-1.933-.778-5.487-2.71-7.56-6.915C.18 13.93.242 11.102.33 7.188c.024-1.106.05-2.25.05-3.521 0-.318.205-.6.508-.694zm.22 1.458L1.831 4.202c-.005 1.087-.028 2.105-.048 3.018-.082 3.707-.14 6.385.98 8.652 1.766 3.582 4.74 5.329 6.525 6.095 1.786-.765 4.76-2.512 6.527-6.095 1.12-2.267 1.061-4.945.98-8.652-.02-.913-.044-1.931-.049-3.018L9.29 1.857zm0 2.603c1.8 0 3.266 1.464 3.268 3.265a3.243 3.243 0 0 1-2.533 3.185l.008 8.101c-.017.217-.18.375-.38.375l-.685.001a.392.392 0 0 1-.382-.382v-.49l-1.3.001a.393.393 0 0 1-.383-.38v-.685c0-.203.178-.38.38-.382h1.301v-.478l-1.3.001a.391.391 0 0 1-.382-.382v-.683c0-.204.177-.382.38-.382l1.291-.009-.013-4.226a3.276 3.276 0 0 1-2.539-3.179 3.25 3.25 0 0 1 .955-2.312 3.243 3.243 0 0 1 2.31-.959zm.01 1.455c-.487.001-.942.19-1.284.533-.342.342-.53.798-.53 1.282A1.806 1.806 0 0 0 9.3 9.54c1 0 1.812-.814 1.812-1.814 0-.484-.189-.938-.532-1.28a1.806 1.806 0 0 0-1.28-.53z" fill="#009DE0" fill-rule="evenodd"/>
</svg>
